<?xml version="1.0" encoding="utf-8"?>
<!-- Generator: Adobe Illustrator 22.1.0, SVG Export Plug-In . SVG Version: 6.00 Build 0)  -->
<svg version="1.1" id="Layer_1" xmlns="http://www.w3.org/2000/svg" xmlns:xlink="http://www.w3.org/1999/xlink" x="0px" y="0px"
	 viewBox="0 0 20 20" style="enable-background:new 0 0 20 20;" xml:space="preserve">
<style type="text/css">
	.st0{fill:#FFAAAA;}
	.st1{fill:#AAFFAA;}
	.st2{fill:#FF0000;}
	.st3{fill:#008000;}
</style>
<g>
	<path class="st0" d="M1.5,0h12.3c0.9,0,1.6,0.7,1.6,1.5v12.3c0,0.9-0.7,1.6-1.6,1.6H1.5c-0.9,0-1.5-0.7-1.5-1.6V1.5
		C0,0.7,0.7,0,1.5,0z"/>
	<path class="st1" d="M6.2,4.6h12.3c0.9,0,1.5,0.7,1.5,1.5v12.3c0,0.9-0.7,1.5-1.5,1.5H6.2c-0.8,0-1.5-0.7-1.5-1.5V6.2
		C4.6,5.3,5.3,4.6,6.2,4.6z"/>
	<path class="st2" d="M6.9,8.4h4.6V10H6.9V8.4z"/>
	<path class="st2" d="M13.1,8.4h4.6V10h-4.6V8.4z"/>
	<path class="st3" d="M6.9,13.9h1.5v-1.6H10v1.6h1.6v1.6H10V17H8.4v-1.6H6.9C6.9,15.4,6.9,13.9,6.9,13.9z"/>
	<path class="st3" d="M13.1,13.9h1.6v-1.6h1.6v1.6h1.5v1.6h-1.5V17h-1.6v-1.6h-1.6V13.9z"/>
</g>
</svg>
